<svg width="26" height="26" viewBox="0 0 26 26" fill="none" xmlns="http://www.w3.org/2000/svg">
<path d="M20.5832 2.16663H5.4165C3.62467 2.16663 2.1665 3.62479 2.1665 5.41663V8.48354C2.1665 9.62429 2.58034 10.661 3.24984 11.4584V21.6666C3.24984 21.9539 3.36397 22.2295 3.56714 22.4327C3.7703 22.6358 4.04585 22.75 4.33317 22.75H12.9998C13.2872 22.75 13.5627 22.6358 13.7659 22.4327C13.969 22.2295 14.0832 21.9539 14.0832 21.6666V16.25H18.4165V21.6666C18.4165 21.9539 18.5306 22.2295 18.7338 22.4327C18.937 22.6358 19.2125 22.75 19.4998 22.75H21.6665C21.9538 22.75 22.2294 22.6358 22.4325 22.4327C22.6357 22.2295 22.7498 21.9539 22.7498 21.6666V11.4573C23.4193 10.661 23.8332 9.62429 23.8332 8.48246V5.41663C23.8332 3.62479 22.375 2.16663 20.5832 2.16663ZM21.6665 5.41663V8.48354C21.6665 9.71854 20.7468 10.7715 19.6179 10.8311L19.4998 10.8333C18.3049 10.8333 17.3332 9.86154 17.3332 8.66663V4.33329H20.5832C21.1812 4.33329 21.6665 4.81971 21.6665 5.41663ZM10.8332 8.66663V4.33329H15.1665V8.66663C15.1665 9.86154 14.1948 10.8333 12.9998 10.8333C11.8049 10.8333 10.8332 9.86154 10.8332 8.66663ZM4.33317 5.41663C4.33317 4.81971 4.8185 4.33329 5.4165 4.33329H8.6665V8.66663C8.6665 9.86154 7.69475 10.8333 6.49984 10.8333L6.38175 10.83C5.25292 10.7715 4.33317 9.71854 4.33317 8.48354V5.41663ZM10.8332 17.3333H6.49984V14.0833H10.8332V17.3333Z" fill="url(#paint0_linear)"/>
<defs>
<linearGradient id="paint0_linear" x1="12.9998" y1="2.16663" x2="12.9998" y2="22.75" gradientUnits="userSpaceOnUse">
<stop stop-color="#EA9769"/>
<stop offset="1" stop-color="#EA6969"/>
</linearGradient>
</defs>
</svg>
